<?xml version="1.0" encoding="UTF-8" standalone="no"?>
<!DOCTYPE svg PUBLIC "-//W3C//DTD SVG 1.1//EN" "http://www.w3.org/Graphics/SVG/1.1/DTD/svg11.dtd">
<svg width="100%" height="100%" viewBox="0 0 1081 200" version="1.1" xmlns="http://www.w3.org/2000/svg" xmlns:xlink="http://www.w3.org/1999/xlink" xml:space="preserve" xmlns:serif="http://www.serif.com/" style="fill-rule:evenodd;clip-rule:evenodd;stroke-linejoin:round;stroke-miterlimit:2;">
    <g id="g2" transform="matrix(3.119319,0,0,3.124024,0.061126,0.070056)">
        <g id="g2106" transform="matrix(0.965643,0,0,0.96252,-899.3295,194.86874)">
            <circle id="path875-5-9-7-3-2-3-9-9-8-0-0-5-87-7" cx="964.562" cy="-169.223" r="33.234" style="fill:rgb(0,150,136);fill-opacity:0.98;"/>
            <path id="rect1249-6-3-4-4-3-6-6-1-2" d="M962.269,-187.408L955.624,-172.605L952.588,-165.841L945.944,-151.037L976.535,-172.605L962.182,-172.605L983.179,-187.408L962.269,-187.408Z" style="fill:white;fill-opacity:0.98;fill-rule:nonzero;"/>
        </g>
        <path id="text979-1" d="M89.523,59.411L89.523,4.168L122.844,4.168L122.844,10.784L97.255,10.784L97.255,27.445L119.974,27.445L119.974,33.981L97.255,33.981L97.255,59.411L89.523,59.411ZM141.816,54.07C143.57,54.07 145.111,54.043 146.439,53.99C147.821,53.884 148.964,53.724 149.867,53.512L149.867,41.156C149.336,40.89 148.459,40.678 147.237,40.518C146.067,40.306 144.633,40.199 142.932,40.199C141.816,40.199 140.62,40.279 139.345,40.438C138.123,40.598 136.98,40.943 135.917,41.475C134.907,41.953 134.057,42.644 133.366,43.547C132.675,44.398 132.33,45.54 132.33,46.975C132.33,49.632 133.18,51.492 134.881,52.555C136.581,53.565 138.893,54.07 141.816,54.07ZM141.178,16.922C144.154,16.922 146.652,17.321 148.671,18.118C150.744,18.862 152.392,19.952 153.614,21.387C154.889,22.768 155.793,24.442 156.324,26.409C156.856,28.322 157.121,30.447 157.121,32.786L157.121,58.693C156.484,58.799 155.58,58.959 154.411,59.171C153.295,59.331 152.02,59.49 150.585,59.65C149.15,59.809 147.582,59.942 145.881,60.048C144.234,60.208 142.587,60.287 140.939,60.287C138.601,60.287 136.448,60.048 134.482,59.57C132.516,59.092 130.815,58.348 129.38,57.338C127.946,56.275 126.83,54.893 126.032,53.193C125.235,51.492 124.837,49.446 124.837,47.055C124.837,44.77 125.288,42.803 126.192,41.156C127.148,39.508 128.424,38.18 130.018,37.17C131.612,36.16 133.472,35.416 135.598,34.938C137.724,34.46 139.956,34.221 142.294,34.221C143.038,34.221 143.809,34.274 144.606,34.38C145.403,34.433 146.147,34.539 146.838,34.699C147.582,34.805 148.22,34.911 148.751,35.018C149.283,35.124 149.655,35.204 149.867,35.257L149.867,33.184C149.867,31.962 149.734,30.766 149.469,29.597C149.203,28.375 148.725,27.312 148.034,26.409C147.343,25.452 146.386,24.708 145.164,24.177C143.995,23.592 142.454,23.3 140.541,23.3C138.096,23.3 135.944,23.486 134.084,23.858C132.277,24.177 130.922,24.522 130.018,24.894L129.141,18.756C130.098,18.331 131.692,17.932 133.924,17.56C136.156,17.135 138.574,16.922 141.178,16.922ZM179.043,54.07C182.072,54.07 184.304,53.671 185.739,52.874C187.227,52.077 187.971,50.801 187.971,49.048C187.971,47.241 187.254,45.806 185.819,44.743C184.384,43.68 182.019,42.484 178.724,41.156C177.13,40.518 175.589,39.88 174.101,39.243C172.666,38.552 171.417,37.755 170.354,36.851C169.291,35.948 168.441,34.858 167.803,33.583C167.165,32.307 166.846,30.74 166.846,28.88C166.846,25.213 168.202,22.317 170.912,20.191C173.622,18.012 177.316,16.922 181.992,16.922C183.161,16.922 184.331,17.002 185.5,17.162C186.669,17.268 187.758,17.427 188.768,17.64C189.778,17.799 190.655,17.985 191.399,18.198C192.196,18.41 192.807,18.596 193.232,18.756L191.877,25.133C191.08,24.708 189.831,24.283 188.13,23.858C186.43,23.379 184.384,23.14 181.992,23.14C179.92,23.14 178.113,23.565 176.572,24.416C175.031,25.213 174.26,26.488 174.26,28.242C174.26,29.145 174.419,29.943 174.738,30.633C175.11,31.324 175.642,31.962 176.333,32.547C177.077,33.078 177.98,33.583 179.043,34.061C180.106,34.539 181.381,35.044 182.869,35.576C184.836,36.32 186.589,37.064 188.13,37.808C189.672,38.499 190.974,39.322 192.036,40.279C193.152,41.236 194.003,42.405 194.587,43.786C195.172,45.115 195.464,46.762 195.464,48.729C195.464,52.555 194.029,55.451 191.16,57.418C188.343,59.384 184.304,60.367 179.043,60.367C175.376,60.367 172.506,60.048 170.434,59.411C168.361,58.826 166.953,58.374 166.209,58.055L167.564,51.678C168.414,51.997 169.769,52.475 171.629,53.113C173.489,53.751 175.961,54.07 179.043,54.07ZM211.885,17.959L227.589,17.959L227.589,24.177L211.885,24.177L211.885,43.308C211.885,45.381 212.045,47.108 212.364,48.49C212.683,49.818 213.161,50.881 213.799,51.678C214.436,52.422 215.233,52.954 216.19,53.273C217.147,53.591 218.263,53.751 219.538,53.751C221.77,53.751 223.55,53.512 224.879,53.033C226.261,52.502 227.217,52.13 227.749,51.917L229.184,58.055C228.44,58.427 227.138,58.879 225.278,59.411C223.418,59.995 221.292,60.287 218.9,60.287C216.084,60.287 213.745,59.942 211.885,59.251C210.079,58.507 208.617,57.418 207.501,55.983C206.385,54.548 205.588,52.794 205.11,50.722C204.685,48.596 204.472,46.151 204.472,43.388L204.472,6.4L211.885,5.125L211.885,17.959ZM274.382,59.411C273.479,57.019 272.628,54.681 271.831,52.396C271.034,50.057 270.21,47.692 269.36,45.301L244.329,45.301L239.307,59.411L231.256,59.411C233.382,53.565 235.375,48.171 237.235,43.228C239.095,38.233 240.902,33.503 242.655,29.039C244.462,24.575 246.243,20.324 247.996,16.285C249.75,12.193 251.583,8.154 253.497,4.168L260.591,4.168C262.504,8.154 264.338,12.193 266.092,16.285C267.845,20.324 269.599,24.575 271.353,29.039C273.16,33.503 274.993,38.233 276.853,43.228C278.713,48.171 280.706,53.565 282.832,59.411L274.382,59.411ZM267.128,38.924C265.427,34.3 263.727,29.836 262.026,25.532C260.379,21.174 258.652,17.002 256.845,13.016C254.985,17.002 253.204,21.174 251.504,25.532C249.856,29.836 248.209,34.3 246.561,38.924L267.128,38.924ZM304.992,3.61C312.751,3.61 318.703,5.098 322.849,8.074C327.047,10.997 329.146,15.381 329.146,21.227C329.146,24.416 328.562,27.153 327.392,29.438C326.276,31.67 324.629,33.503 322.45,34.938C320.324,36.32 317.72,37.33 314.638,37.967C311.556,38.605 308.075,38.924 304.195,38.924L298.057,38.924L298.057,59.411L290.325,59.411L290.325,4.965C292.504,4.434 294.922,4.088 297.579,3.929C300.289,3.716 302.76,3.61 304.992,3.61ZM305.63,10.386C302.335,10.386 299.811,10.466 298.057,10.625L298.057,32.307L303.876,32.307C306.534,32.307 308.925,32.148 311.051,31.829C313.176,31.457 314.957,30.873 316.392,30.075C317.88,29.225 319.022,28.083 319.819,26.648C320.617,25.213 321.015,23.379 321.015,21.147C321.015,19.022 320.59,17.268 319.74,15.886C318.943,14.504 317.827,13.415 316.392,12.618C315.01,11.768 313.389,11.183 311.529,10.864C309.669,10.545 307.703,10.386 305.63,10.386ZM338.792,4.168L346.524,4.168L346.524,59.411L338.792,59.411L338.792,4.168Z" style="fill:rgb(0,150,136);fill-rule:nonzero;"/>
    </g>
</svg>
